<svg xmlns="http://www.w3.org/2000/svg" viewBox="0 0 1024 1024" fill="none">
  <!-- Purple background with rounded corners -->
  <rect width="1024" height="1024" rx="180" fill="#6D49E8"/>
  <!-- Inner white border -->
  <rect x="72" y="72" width="880" height="880" rx="140" stroke="#FFFFFF" stroke-width="18" fill="none"/>
  <!-- Head in profile facing left -->
  <path d="M 760 300
           C 810 360, 830 430, 830 510
           C 830 580, 810 640, 780 690
           L 780 810
           L 420 810
           L 420 720
           L 350 680
           C 300 650, 270 600, 250 540
           C 235 480, 240 400, 280 340
           C 320 280, 390 250, 480 245
           C 580 240, 680 250, 760 300 Z"
        stroke="#FFFFFF" stroke-width="26" stroke-linejoin="round" fill="none"/>
  <!-- Nose indent -->
  <path d="M 250 500
           C 235 510, 225 515, 218 520
           C 215 522, 215 526, 218 528
           C 230 536, 240 544, 250 550"
        stroke="#FFFFFF" stroke-width="26" stroke-linecap="round" stroke-linejoin="round" fill="none"/>
  <!-- Mouth -->
  <path d="M 258 600
           C 250 612, 248 622, 252 632"
        stroke="#FFFFFF" stroke-width="26" stroke-linecap="round" fill="none"/>
</svg>
